<svg width="24" height="24" fill="none" xmlns="http://www.w3.org/2000/svg"><path d="M1.047 20.287C-1.258 16.223.311 9.849 5.08 5.08c5.416-5.414 12.903-6.704 16.726-2.883.005.005.008.01.015.016-.765 2.226-3.202 6.96-10.505 9.521-6.69 2.347-9.272 6.077-10.268 8.553zM22.881 3.588c-.58 1.352-1.589 3.118-3.326 4.855-1.747 1.748-4.23 3.463-7.746 4.697-7.137 2.502-9.131 6.598-9.688 8.583.027.027.05.054.075.08 3.823 3.821 11.31 2.53 16.725-2.884 4.819-4.817 6.368-11.273 3.96-15.33z" fill="#505050"/></svg>