<svg width="70" height="70" fill="none" xmlns="http://www.w3.org/2000/svg"><circle cx="35" cy="35" r="35" fill="#F9B300"/><path d="M33.809 31.915c-1.12 1.097-2.52 1.645-4.2 1.645-1.68 0-3.092-.56-4.235-1.68-1.12-1.12-1.68-2.485-1.68-4.095 0-1.61.56-2.975 1.68-4.095 1.143-1.12 2.555-1.68 4.235-1.68 1.68 0 3.08.56 4.2 1.68 1.12 1.097 1.68 2.462 1.68 4.095 0 1.633-.56 3.01-1.68 4.13zm-7.63 11.375l15.96-17.745 2.135 1.19-15.995 17.78-2.1-1.225zm1.82-13.895c.42.42.945.63 1.575.63s1.155-.21 1.575-.63c.42-.443.63-.98.63-1.61 0-.63-.21-1.155-.63-1.575-.42-.42-.945-.63-1.575-.63s-1.155.21-1.575.63c-.397.42-.595.945-.595 1.575s.198 1.167.595 1.61zm17.64 16.345c-1.12 1.12-2.52 1.68-4.2 1.68-1.68 0-3.08-.56-4.2-1.68-1.12-1.12-1.68-2.485-1.68-4.095 0-1.61.56-2.975 1.68-4.095 1.12-1.12 2.52-1.68 4.2-1.68 1.68 0 3.08.56 4.2 1.68 1.12 1.12 1.68 2.485 1.68 4.095 0 1.61-.56 2.975-1.68 4.095zm-5.775-2.485c.42.42.945.63 1.575.63s1.143-.222 1.54-.665c.42-.443.63-.968.63-1.575 0-.63-.21-1.155-.63-1.575-.397-.443-.91-.665-1.54-.665s-1.155.222-1.575.665c-.397.42-.595.945-.595 1.575s.198 1.167.595 1.61z" fill="#000"/></svg>