<svg width="102" height="102" fill="none" xmlns="http://www.w3.org/2000/svg"><path d="M60.762 51c0 5.391-4.37 9.762-9.762 9.762-5.391 0-9.762-4.37-9.762-9.762 0-5.391 4.37-9.762 9.762-9.762 5.391 0 9.762 4.37 9.762 9.762z" fill="#F9B300"/><path d="M73.83 33.729a9.073 9.073 0 00-2.191-3.368 9.067 9.067 0 00-3.368-2.19c-1.032-.401-2.582-.878-5.437-1.008-3.089-.14-4.015-.171-11.834-.171-7.82 0-8.746.03-11.834.17-2.855.131-4.406.608-5.437 1.009a9.061 9.061 0 00-3.368 2.19 9.079 9.079 0 00-2.191 3.368c-.4 1.032-.878 2.583-1.008 5.438-.14 3.088-.171 4.014-.171 11.834 0 7.82.03 8.745.171 11.834.13 2.855.607 4.405 1.008 5.437a9.077 9.077 0 002.19 3.367 9.069 9.069 0 003.368 2.191c1.032.402 2.583.879 5.438 1.008 3.088.141 4.013.171 11.833.171 7.821 0 8.747-.03 11.834-.17 2.856-.13 4.406-.607 5.438-1.009a9.698 9.698 0 005.558-5.558c.401-1.032.878-2.582 1.009-5.437.14-3.089.17-4.015.17-11.834 0-7.82-.03-8.746-.17-11.834-.13-2.855-.607-4.406-1.009-5.438zM51 66.038c-8.306 0-15.039-6.732-15.039-15.038 0-8.306 6.733-15.038 15.039-15.038 8.305 0 15.038 6.732 15.038 15.038 0 8.306-6.733 15.038-15.038 15.038zm15.632-27.156a3.514 3.514 0 110-7.029 3.514 3.514 0 010 7.029z" fill="#F9B300"/><path d="M51 0C22.838 0 0 22.838 0 51s22.838 51 51 51 51-22.838 51-51S79.162 0 51 0zm29.109 63.074c-.142 3.117-.638 5.246-1.362 7.109a14.973 14.973 0 01-8.564 8.564c-1.863.724-3.992 1.22-7.109 1.362-3.122.142-4.12.176-12.073.176-7.954 0-8.951-.034-12.075-.176-3.116-.143-5.246-.638-7.108-1.362a14.348 14.348 0 01-5.187-3.378 14.355 14.355 0 01-3.378-5.186c-.723-1.863-1.22-3.992-1.36-7.109-.145-3.123-.178-4.12-.178-12.074 0-7.953.033-8.95.177-12.074.141-3.117.636-5.246 1.36-7.109a14.348 14.348 0 013.379-5.186 14.346 14.346 0 015.186-3.378c1.863-.724 3.992-1.22 7.11-1.361 3.122-.143 4.12-.177 12.073-.177s8.95.034 12.074.177c3.117.142 5.246.637 7.109 1.36a14.358 14.358 0 015.187 3.379 14.35 14.35 0 013.377 5.186c.725 1.863 1.22 3.992 1.362 7.11.143 3.122.176 4.12.176 12.073s-.033 8.95-.176 12.074z" fill="#F9B300"/></svg>