<svg width="102" height="102" fill="none" xmlns="http://www.w3.org/2000/svg"><circle cx="51" cy="51" r="51" fill="#F9B300"/><path d="M77.519 72.175v-7.984a5.316 5.316 0 00-1.263-3.574 5.337 5.337 0 00-3.324-1.83 34.305 34.305 0 01-7.494-1.862 5.345 5.345 0 00-5.627 1.197l-3.387 3.38a42.627 42.627 0 01-16-15.969l3.386-3.38a5.32 5.32 0 001.2-5.616 34.118 34.118 0 01-1.867-7.479 5.32 5.32 0 00-1.803-3.29 5.34 5.34 0 00-3.53-1.288h-8a5.342 5.342 0 00-3.935 1.735 5.32 5.32 0 00-1.373 4.067 52.606 52.606 0 008.187 23.076 51.952 51.952 0 0016.001 15.97 52.844 52.844 0 0023.015 8.17 5.344 5.344 0 004.086-1.379 5.324 5.324 0 001.728-3.944z" stroke="#fff" stroke-width="4.096" stroke-linecap="round" stroke-linejoin="round"/></svg>