<svg width="2643" height="310" fill="none" xmlns="http://www.w3.org/2000/svg"><path fill-rule="evenodd" clip-rule="evenodd" d="M0 201.614l109.458-30c109.459-30 328.375-90 547.292-114 218.917-24 437.83-12 656.75 18 218.92 30 437.83 78 656.75 120 218.92 42 437.83 78 547.29 96l109.46 18v-288H0v180z" fill="#F9B300"/><path fill-rule="evenodd" clip-rule="evenodd" d="M16 180l109.458-30C234.917 120 453.833 60 672.75 36c218.917-24 437.83-12 656.75 18 218.92 30 437.83 78 656.75 120 218.92 42 437.83 78 547.29 96L2643 288V0H16v180z" fill="#F5F5F5"/></svg>